<?xml version="1.0" encoding="UTF-8"?>
<svg width="19" height="13" viewBox="0 0 19 13" xmlns="http://www.w3.org/2000/svg"><g className="qubely-svg-fill" fill-rule="nonzero"><path d="M10.83 13h-2.109v-5.792h-5.924v5.792h-2.101v-12.85h2.101v5.256h5.924v-5.256h2.109z" /><path d="M18.278 13h-4.839v-.869l1.841-1.851c.544-.557.904-.951 1.082-1.184.177-.233.307-.452.388-.657.081-.205.122-.425.122-.659 0-.322-.097-.576-.291-.762-.194-.186-.461-.278-.803-.278-.273 0-.538.05-.793.151-.256.101-.551.283-.886.547l-.62-.757c.397-.335.783-.573 1.157-.713s.773-.21 1.196-.21c.664 0 1.196.173 1.597.52.4.347.601.813.601 1.399 0 .322-.058.628-.173.918-.116.29-.293.588-.532.896-.239.308-.637.723-1.194 1.248l-1.24 1.201v.049h3.389v1.011z" /></g></svg>