<?xml version="1.0" encoding="UTF-8"?>
<svg width="19" height="14" viewBox="0 0 19 14" xmlns="http://www.w3.org/2000/svg"><g className="qubely-svg-fill" fill-rule="nonzero"><path d="M10.83 13h-2.109v-5.792h-5.924v5.792h-2.101v-12.85h2.101v5.256h5.924v-5.256h2.109z" /><path d="M18.01 7.502c0 .452-.132.829-.396 1.13-.264.301-.635.504-1.113.608v.039c.573.072 1.003.25 1.289.535.286.285.43.663.43 1.135 0 .687-.243 1.217-.728 1.589-.485.373-1.175.559-2.07.559-.791 0-1.458-.129-2.002-.386v-1.021c.303.15.623.265.962.347.339.081.664.122.977.122.553 0 .967-.103 1.24-.308.273-.205.41-.522.41-.952 0-.381-.151-.661-.454-.84-.303-.179-.778-.269-1.426-.269h-.62v-.933h.63c1.139 0 1.709-.394 1.709-1.182 0-.306-.099-.542-.298-.708-.199-.166-.492-.249-.879-.249-.27 0-.531.038-.781.115-.251.076-.547.225-.889.447l-.562-.801c.654-.482 1.414-.723 2.28-.723.719 0 1.281.155 1.685.464.404.309.605.736.605 1.279z" /></g></svg>