<?xml version="1.0" encoding="UTF-8"?>
<svg width="19" height="14" viewBox="0 0 19 14" xmlns="http://www.w3.org/2000/svg"><g className="qubely-svg-fill" fill-rule="nonzero"><path d="M10.83 13h-2.109v-5.792h-5.924v5.792h-2.101v-12.85h2.101v5.256h5.924v-5.256h2.109z" /><path d="M15.861 8.542c.719 0 1.289.19 1.709.571.42.381.63.9.63 1.558 0 .762-.238 1.357-.715 1.785-.477.428-1.155.642-2.034.642-.798 0-1.424-.129-1.88-.386v-1.04c.264.15.566.265.908.347.342.081.659.122.952.122.518 0 .911-.116 1.182-.347.27-.231.405-.57.405-1.016 0-.853-.544-1.279-1.631-1.279-.153 0-.342.015-.566.046-.225.031-.422.066-.591.105l-.513-.303.273-3.486h3.711v1.021h-2.7l-.161 1.768.417-.068c.164-.026.365-.039.603-.039z" /></g></svg>