<?xml version="1.0" encoding="UTF-8"?>
<svg width="19" height="14" viewBox="0 0 19 14" xmlns="http://www.w3.org/2000/svg"><g className="qubely-svg-fill" fill-rule="nonzero"><path d="M10.83 13h-2.109v-5.792h-5.924v5.792h-2.101v-12.85h2.101v5.256h5.924v-5.256h2.109z" /><path d="M13.459 9.958c0-2.793 1.138-4.189 3.413-4.189.358 0 .661.028.908.083v.957c-.247-.072-.534-.107-.859-.107-.765 0-1.34.205-1.724.615-.384.41-.592 1.068-.625 1.973h.059c.153-.264.368-.468.645-.613.277-.145.602-.217.977-.217.648 0 1.152.199 1.514.596.361.397.542.936.542 1.616 0 .749-.209 1.34-.627 1.775-.418.435-.989.652-1.711.652-.511 0-.955-.123-1.333-.369s-.668-.604-.872-1.074c-.203-.47-.305-1.036-.305-1.697zm2.49 2.192c.394 0 .697-.127.911-.381.213-.254.32-.617.32-1.089 0-.41-.1-.732-.3-.967-.2-.234-.5-.352-.901-.352-.247 0-.475.053-.684.159-.208.106-.373.251-.493.435s-.181.372-.181.564c0 .459.125.846.374 1.16.249.314.567.471.955.471z" /></g></svg>