<?xml version="1.0" encoding="UTF-8"?>
<svg width="22" height="22" viewBox="0 0 22 22" xmlns="http://www.w3.org/2000/svg"><g fill="none"><path d="M1.88 0c-1.038 0-1.88.842-1.88 1.88v6.71h1.88v-5.77c0-.519.421-.94.94-.94h5.77v-1.88h-6.71zM13.41 0v1.88h5.77c.519 0 .94.421.94.94v5.77h1.88v-6.71c0-1.038-.842-1.88-1.88-1.88h-6.71z" id="Path" fill="#CACCCE" /><path d="M1.88 13.41h-1.88v6.71c0 1.038.842 1.88 1.88 1.88h6.71v-1.88h-5.77c-.519 0-.94-.421-.94-.94v-5.77z" id="Path" fill="#2184F9" /><path d="M13.41 20.12v1.88h6.71c1.038 0 1.88-.842 1.88-1.88v-6.71h-1.88v5.77c0 .519-.421.94-.94.94h-5.77z" fill="#CACCCE" /></g></svg>