<svg xmlns="http://www.w3.org/2000/svg" xml:space="preserve" id="Layer_1" x="0" y="0" version="1.1" viewBox="0 0 146 111"><style>.st1{fill-rule:evenodd;clip-rule:evenodd;fill:#d6d9dd}</style><g id="Assets"><g id="Artboard-Copy" transform="translate(-1116 -1812)"><g id="Group-77-Copy" transform="translate(1116 1812.293)"><path id="Rectangle-Copy-999" fill="#f2f3f7" fill-rule="evenodd" d="M0-.3h146v111H0z" clip-rule="evenodd"/><path id="Rectangle-Copy-1049" d="M15.5 12.2h43.9c1.7 0 3 1.3 3 3v80c0 1.7-1.3 3-3 3H15.5c-1.7 0-3-1.3-3-3v-80c0-1.7 1.3-3 3-3z" class="st1"/><path id="Rectangle-Copy-1109" d="M71.6 13.4H88c1.7 0 3 1.3 3 3v17.7c0 1.7-1.3 3-3 3H71.6c-1.7 0-3-1.3-3-3V16.4c0-1.6 1.4-3 3-3z" class="st1"/><path id="Rectangle-Copy-1113" d="M99.8 19.7h20c1.4 0 2.5 1.1 2.5 2.5s-1.1 2.5-2.5 2.5h-20c-1.4 0-2.5-1.1-2.5-2.5s1.1-2.5 2.5-2.5z" class="st1"/><path id="Rectangle-Copy-1117" d="M99.8 49.6h20c1.4 0 2.5 1.1 2.5 2.5s-1.1 2.5-2.5 2.5h-20c-1.4 0-2.5-1.1-2.5-2.5s1.1-2.5 2.5-2.5z" class="st1"/><path id="Rectangle-Copy-1121" d="M99.8 79.5h20c1.4 0 2.5 1.1 2.5 2.5s-1.1 2.5-2.5 2.5h-20c-1.4 0-2.5-1.1-2.5-2.5s1.1-2.5 2.5-2.5z" class="st1"/><path id="Rectangle-Copy-1125" d="M98.6 28.4h33.7c.7 0 1.2.6 1.2 1.2 0 .7-.6 1.2-1.2 1.2H98.6c-.7 0-1.2-.6-1.2-1.2-.1-.6.5-1.2 1.2-1.2z" class="st1"/><path id="Rectangle-Copy-1129" d="M98.6 58.3h33.7c.7 0 1.2.6 1.2 1.2 0 .7-.6 1.2-1.2 1.2H98.6c-.7 0-1.2-.6-1.2-1.2-.1-.6.5-1.2 1.2-1.2z" class="st1"/><path id="Rectangle-Copy-1133" d="M98.6 88.3h33.7c.7 0 1.2.6 1.2 1.2 0 .7-.6 1.2-1.2 1.2H98.6c-.7 0-1.2-.6-1.2-1.2-.1-.7.5-1.2 1.2-1.2z" class="st1"/><path id="Rectangle-Copy-1145" d="M71.6 43.4H88c1.7 0 3 1.3 3 3v18.9c0 1.7-1.3 3-3 3H71.6c-1.7 0-3-1.3-3-3V46.4c0-1.7 1.4-3 3-3z" class="st1"/><path id="Rectangle-Copy-1149" d="M71.6 74.5H88c1.7 0 3 1.3 3 3v17.7c0 1.7-1.3 3-3 3H71.6c-1.7 0-3-1.3-3-3V77.6c0-1.7 1.4-3.1 3-3.1z" class="st1"/></g></g></g><path id="Rectangle-Copy-1217" fill-rule="evenodd" d="M0-.1h146v111.2H0z" clip-rule="evenodd" opacity=".1"/><linearGradient id="Rectangle-Copy-1216_1_" x1="-486.02" x2="-485.541" y1="330.938" y2="330.662" gradientTransform="matrix(51.0012 0 0 -23.6347 24848.883 7873.977)" gradientUnits="userSpaceOnUse"><stop offset="0" stop-color="#ea0081"/><stop offset=".492" stop-color="#240de9"/><stop offset="1" stop-color="#00feff"/></linearGradient><path id="Rectangle-Copy-1216" fill="url(#Rectangle-Copy-1216_1_)" fill-rule="evenodd" d="M59.3 43.6h27.5c6.5 0 11.9 5.3 11.9 11.9 0 6.6-5.3 11.9-11.9 11.9H59.3c-6.5 0-11.9-5.3-11.9-11.9 0-6.6 5.3-11.9 11.9-11.9z" clip-rule="evenodd"/><text fill="#fff" font-family="Arial-BoldMT" font-size="14.061" transform="matrix(.9987 0 0 1 59.174 61.007)">PRO</text><path fill="none" d="M0-.3h146v111.5H0z"/></svg>