<svg xmlns="http://www.w3.org/2000/svg" width="146" height="111"><g fill="none" fill-rule="evenodd"><path fill="#F2F3F7" d="M0 0h145.537v110.707H0z"/><rect width="24.878" height="24.878" x="12.439" y="12.439" fill="#D6D9DD" rx="3"/><rect width="44.78" height="4.976" x="43.537" y="16.171" fill="#D6D9DD" rx="2.488"/><rect width="53.488" height="4.976" x="43.537" y="47.268" fill="#D6D9DD" rx="2.488"/><rect width="38.561" height="4.976" x="43.537" y="78.366" fill="#D6D9DD" rx="2.488"/><rect width="89.561" height="2.488" x="43.537" y="24.878" fill="#D6D9DD" rx="1.244"/><rect width="89.561" height="2.488" x="43.537" y="55.976" fill="#D6D9DD" rx="1.244"/><rect width="89.561" height="2.488" x="43.537" y="87.073" fill="#D6D9DD" rx="1.244"/><rect width="74.634" height="2.488" x="43.537" y="31.098" fill="#D6D9DD" rx="1.244"/><rect width="74.634" height="2.488" x="43.537" y="62.195" fill="#D6D9DD" rx="1.244"/><rect width="74.634" height="2.488" x="43.537" y="93.293" fill="#D6D9DD" rx="1.244"/><rect width="24.878" height="24.878" x="12.439" y="43.537" fill="#D6D9DD" rx="3"/><rect width="24.878" height="24.878" x="12.439" y="74.634" fill="#D6D9DD" rx="3"/></g></svg>