<svg xmlns="http://www.w3.org/2000/svg" width="65" height="49"><g fill="none" fill-rule="evenodd"><path fill="#F2F3F7" d="M0 0h65v49H0z"/><path fill="#D6D9DD" fill-rule="nonzero" d="M51.278 7.206a5.05 5.05 0 0 1 5.055 5.044 5.05 5.05 0 0 1-5.055 5.044 5.05 5.05 0 0 1-5.056-5.044 5.05 5.05 0 0 1 5.056-5.044ZM63.555 43.745c0 1.615-1.494 3.814-4.294 3.814H5.799c-2.335 0-4.354-1.686-4.354-3.814v-8.841c-.008-.772.329-1.515.934-2.064l16.443-14.716c1.293-1.107 3.332-1.107 4.625 0l12.21 10.905 6.064-5.423c.614-.549 1.445-.857 2.313-.857.867 0 1.699.308 2.312.857l16.247 14.531c.605.55.97 1.06.962 1.832v3.776Z"/></g></svg>