<svg xmlns="http://www.w3.org/2000/svg" xmlns:xlink="http://www.w3.org/1999/xlink" id="Layer_1" data-name="Layer 1" width="130px" height="130px" viewBox="0 0 131.12 130"><defs><linearGradient id="linear-gradient" x1="-1082.11" x2="-1079.46" y1="8418.1" y2="8418.1" gradientTransform="matrix(15.63 0 0 5.23 17030.57 -43882.76)" gradientUnits="userSpaceOnUse"><stop offset="0" stop-color="#65ffff"/><stop offset="1" stop-color="#4e1fde" stop-opacity=".3"/></linearGradient><linearGradient xlink:href="#linear-gradient" id="linear-gradient-2" x1="-1117.55" x2="-1114.9" y1="7732.14" y2="7732.14" gradientTransform="matrix(27.26 0 0 9.83 30533.27 -75829.84)"/><linearGradient id="linear-gradient-3" x1="-1137.8" x2="-1135.15" y1="7117.22" y2="7117.22" gradientTransform="matrix(49.44 0 0 47.68 56319.05 -339225.65)" gradientUnits="userSpaceOnUse"><stop offset="0" stop-color="#aa0fd0"/><stop offset=".53" stop-color="#4321e0"/><stop offset="1" stop-color="#65a8ff"/></linearGradient><linearGradient id="linear-gradient-4" x1="-1111.64" x2="-1111.55" y1="7141.34" y2="7139.26" gradientTransform="matrix(24.7 0 0 41.51 27549.15 -296290.04)" gradientUnits="userSpaceOnUse"><stop offset="0"/><stop offset="1" stop-color="#fff" stop-opacity="0"/></linearGradient></defs><g id="Group"><path id="Path-4" fill="none" d="m91.24 118.96-.09-.09"/><path id="Path-5" d="M133.34 137a16.37 16.37 0 0 0-15.29 7.4s30.42 16.39 41.43-2.87c-6.86 7.47-14.89-4.13-26.14-4.53Z" class="cls-2" transform="translate(-59.91 -60.15)"/><path id="Path-6" fill="url(#linear-gradient)" d="M133.34 137a16.37 16.37 0 0 0-15.29 7.4s30.42 16.39 41.43-2.87c-6.86 7.47-14.89-4.13-26.14-4.53Z" transform="translate(-59.91 -60.15)"/><path id="Path-7" d="M127.39 165.64c5 4.23 18.19 20.81 18.19 20.81a64.13 64.13 0 0 1-21.69 3.69 62.79 62.79 0 0 1-46-18.9 65 65 0 0 1-4.56-5.11h.27a90.26 90.26 0 0 0 28.68 4.18c13.35-.63 15.92-6.12 20.89-6.2a5.85 5.85 0 0 1 4.37 1.53Z" class="cls-2" transform="translate(-59.91 -60.15)"/><path id="Path-8" fill="url(#linear-gradient-2)" d="M127.39 165.64c5 4.23 18.19 20.81 18.19 20.81a64.13 64.13 0 0 1-21.69 3.69 62.79 62.79 0 0 1-46-18.9 65 65 0 0 1-4.56-5.11h.27a90.26 90.26 0 0 0 28.68 4.18c13.35-.63 15.92-6.12 20.89-6.2a5.85 5.85 0 0 1 4.37 1.53Z" transform="translate(-59.91 -60.15)"/><path id="Path-9" fill="url(#linear-gradient-3)" d="M177.62 165.91a63.48 63.48 0 0 0 13.41-40 65.28 65.28 0 0 0-65.56-65.74 65.28 65.28 0 0 0-65.55 65.73A63.61 63.61 0 0 0 73.31 166a90.73 90.73 0 0 0 28.89 4.26c12.79-.6 15.71-5.46 20.24-6.14a37.83 37.83 0 0 1-11.91-2.6 36 36 0 0 1-12.23-8.19 37.54 37.54 0 0 1-10.93-27.48 37.67 37.67 0 0 1 10.93-27.7 36.72 36.72 0 0 1 27-10.92 36.79 36.79 0 0 1 27 10.92 37.94 37.94 0 0 1 10.93 27.72 31.93 31.93 0 0 1-3.83 15.63c-.38.65-.76 1.28-1.2 1.91-11.88 16.2-40.15 1-40.15 1l18.3 19.12 12.24 12.78.24.19 2.32 2.43 1.34 1.4a22.77 22.77 0 0 0 16.39 6.22 45.86 45.86 0 0 0 18.7-4.55l.47-.19 1.26-1.45-11.48-12a1.91 1.91 0 0 1-.21-2.45Z" transform="translate(-59.91 -60.15)"/><path id="Path-10" fill="url(#linear-gradient-4)" d="M125.47 87.28v-27a65.28 65.28 0 0 0-65.55 65.62A63.61 63.61 0 0 0 73.31 166a90.73 90.73 0 0 0 28.89 4.26c12.79-.6 15.71-5.46 20.24-6.14a37.83 37.83 0 0 1-11.91-2.6 36 36 0 0 1-12.23-8.19 37.54 37.54 0 0 1-10.93-27.48 37.67 37.67 0 0 1 10.93-27.7 36.76 36.76 0 0 1 27.17-10.87Z" opacity=".3" style="isolation:isolate" transform="translate(-59.91 -60.15)"/></g></svg>