<svg xmlns="http://www.w3.org/2000/svg" xml:space="preserve" viewBox="0 0 32 32"><path fill="#daf7f0" d="M21.4 23.4h-19c-1.2 0-2-.9-2-2v-19c0-1.2.9-2 2-2h19c1.2 0 2 .9 2 2v19c0 1.2-.9 2-2 2z"/><path fill="none" stroke="#1fd0a3" stroke-dasharray="3.369 3.368" stroke-linecap="round" stroke-miterlimit="10" d="M28.6 30.7H13.2c-1.2 0-2-.9-2-2V13.2c0-1.2.9-2 2-2h15.3c1.2 0 2 .9 2 2v15.3c.1 1.2-.8 2.2-1.9 2.2z"/><path fill="#1fd0a3" d="m28.6 26.4-1.7-2.3 1.6-1.2c.5-.3.3-.9-.4-1.3l-6.1-3c-.7-.3-1.2 0-1 .7l1 6.7c.1.7.6 1.2 1.2.7l1.6-1.2 1.7 2.3c.2.3.6.3.8.1l1.3-.9c.1.2.2-.2 0-.6z"/></svg>