<svg xmlns="http://www.w3.org/2000/svg" viewBox="0 0 38 38">
    <defs>
        <linearGradient id="linear-gradient" x1="5.29" y1="-2940.58" x2="32.69" y2="-2940.58" gradientTransform="matrix(1 0 0 -1 0 -2922.24)" gradientUnits="userSpaceOnUse">
            <stop offset="0" stop-color="#00d1ff"/>
            <stop offset="1" stop-color="#0a00d1"/>
        </linearGradient>
        <style>
            .cls-5{fill:#fff}
        </style>
    </defs>
    <g id="Layer_2" data-name="Layer 2">
        <g id="Layer_1-2" data-name="Layer 1">
            <path fill="none" d="M0 0h38v38H0z"/>
            <path d="M28.89 35H9a3.62 3.62 0 01-3.68-3.6V8.07A3.65 3.65 0 019 4.33h19.89a3.63 3.63 0 013.69 3.6v23.34A3.51 3.51 0 0128.89 35z" fill="#0a00d1"/>
            <path d="M28.89 33.67H9a3.65 3.65 0 01-3.68-3.74V6.6A3.62 3.62 0 019 3h19.89a3.63 3.63 0 013.69 3.6v23.33a3.51 3.51 0 01-3.69 3.74z" fill="url(#linear-gradient)"/>
            <path d="M28.89 3H9a3.59 3.59 0 00-2.9 1.47c24.16-1.34 26.61 17.86 26.61 17.86V6.6A3.66 3.66 0 0028.89 3z" opacity=".2" fill="#0a00d1"/>
            <rect class="cls-5" x="15.52" y="26.42" width="12.65" height="1.36" rx=".63"/>
            <rect class="cls-5" x="9.83" y="25.67" width="2.91" height="2.84" rx=".96"/>
            <rect class="cls-5" x="15.52" y="20.56" width="12.65" height="1.36" rx=".63"/>
            <rect class="cls-5" x="9.83" y="19.82" width="2.91" height="2.84" rx=".96"/>
            <rect class="cls-5" x="15.52" y="14.71" width="12.65" height="1.36" rx=".63"/>
            <rect class="cls-5" x="9.83" y="13.97" width="2.91" height="2.84" rx=".96"/>
            <rect class="cls-5" x="15.52" y="8.86" width="12.65" height="1.36" rx=".63"/>
            <rect class="cls-5" x="9.83" y="8.12" width="2.91" height="2.84" rx=".96"/>
        </g>
    </g>
</svg>