<svg version="1.1" id="Layer_1" xmlns="http://www.w3.org/2000/svg" x="0" y="0" viewBox="0 0 42 42" xml:space="preserve">
  <style>
    .st2{fill:#fff}
  </style>
    <path d="M20.3 42C9.1 42 .1 32.9.1 21.7s9-20.3 20.2-20.3 20.3 9.1 20.3 20.3S31.5 42 20.3 42z" fill="#00eaff"/>
    <linearGradient id="SVGID_1_" gradientUnits="userSpaceOnUse" x1="18.277" y1="18.812" x2="41.95" y2="18.812">
    <stop offset="0" stop-color="#0a00d1"/>
        <stop offset="1" stop-color="#00d1ff"/>
  </linearGradient>
    <path d="M34.2 37.6c-.5 0-1-.2-1.4-.6-.8-.8-.8-2.1 0-2.9 3.3-3.3 5.1-7.7 5.1-12.4C37.9 12 30 4.1 20.3 4.1c-1.1 0-2-.9-2-2s.9-2 2-2C32.2.1 42 9.8 42 21.7c0 5.8-2.2 11.2-6.3 15.3-.5.4-1 .6-1.5.6z" fill="url(#SVGID_1_)"/>
    <g>
    <path class="st2" d="M29.7 19.6H10.8c-.7-.1-1.3-.7-1.2-1.4.1-.7.6-1.2 1.2-1.2h18.9c.7-.1 1.4.5 1.4 1.2.1.7-.5 1.4-1.2 1.4h-.2zM26.4 26.4H14.2c-.7-.1-1.3-.7-1.2-1.4.1-.7.6-1.2 1.2-1.2h12.2c.7.1 1.3.7 1.2 1.4 0 .6-.5 1.1-1.2 1.2z"/>
  </g>
</svg>